<?xml version="1.0" encoding="utf-8"?>
<!-- Generator: Adobe Illustrator 23.1.0, SVG Export Plug-In . SVG Version: 6.00 Build 0)  -->
<svg version="1.1" id="Capa_1" xmlns="http://www.w3.org/2000/svg" xmlns:xlink="http://www.w3.org/1999/xlink" x="0px" y="0px"
	 viewBox="0 0 343.5 343.5" style="enable-background:new 0 0 343.5 343.5;" xml:space="preserve">
<style type="text/css">
	.st0{fill:#FFFFFF;}
</style>
<g>
	<g>
		<path class="st0" d="M322,161.8H139.4c-5.5,0-10,4.5-10,10s4.5,10,10,10H322c5.5,0,10-4.5,10-10S327.6,161.8,322,161.8z"/>
	</g>
</g>
<g>
	<g>
		<path class="st0" d="M58,125.3c-25.7,0-46.5,20.8-46.5,46.5s20.8,46.5,46.5,46.5s46.5-20.8,46.5-46.5S83.7,125.3,58,125.3z
			 M58,198.3c-14.7,0-26.5-11.9-26.5-26.5c0-14.7,11.9-26.5,26.5-26.5s26.5,11.9,26.5,26.5S72.6,198.3,58,198.3z"/>
	</g>
</g>
<g>
	<g>
		<path class="st0" d="M322,36.8H139.4c-5.5,0-10,4.5-10,10s4.5,10,10,10H322c5.5,0,10-4.5,10-10S327.6,36.8,322,36.8z"/>
	</g>
</g>
<g>
	<g>
		<path class="st0" d="M58,0C32.3,0,11.5,20.8,11.5,46.5S32.3,93,58,93s46.5-20.8,46.5-46.5C104.4,20.9,83.7,0.1,58,0z M58,73.1
			c-14.7,0-26.5-11.9-26.5-26.5S43.3,20.1,58,20.1c14.7,0,26.5,11.9,26.5,26.5S72.6,73.1,58,73.1z"/>
	</g>
</g>
<g>
	<g>
		<path class="st0" d="M322,286.8H139.4c-5.5,0-10,4.5-10,10s4.5,10,10,10H322c5.5,0,10-4.5,10-10S327.6,286.8,322,286.8z"/>
	</g>
</g>
<g>
	<g>
		<path class="st0" d="M58,250.5c-25.7,0-46.5,20.8-46.5,46.5s20.8,46.5,46.5,46.5s46.5-20.8,46.5-46.5
			C104.4,271.4,83.7,250.5,58,250.5z M58,323.6c-14.7,0-26.5-11.9-26.5-26.5c0-14.7,11.9-26.5,26.5-26.5c14.7,0,26.5,11.9,26.5,26.5
			S72.6,323.6,58,323.6z"/>
	</g>
</g>
</svg>
