<?xml version="1.0" encoding="utf-8"?>
<!-- Generator: Adobe Illustrator 23.1.0, SVG Export Plug-In . SVG Version: 6.00 Build 0)  -->
<svg version="1.1" id="Слой_1" xmlns="http://www.w3.org/2000/svg" xmlns:xlink="http://www.w3.org/1999/xlink" x="0px" y="0px"
	 viewBox="0 0 136 136" style="enable-background:new 0 0 136 136;" xml:space="preserve">
<style type="text/css">
	.st0{fill:#FFFFFF;}
</style>
<g id="surface1">
	<path class="st0" d="M4.5,117.5c-0.1,0.1-0.3,0.3-0.4,0.4c-4.1,4.3-3.9,11.1,0.4,15.1c4.3,4.1,11.1,3.9,15.1-0.4l37.7-37.5
		c17.4,10.2,39.1,9.4,55.6-2.3c23.1-16.3,28.5-48.2,12.2-71.3C108.8-1.5,76.9-6.9,53.8,9.4S25.3,57.6,41.7,80.7L4.5,117.5z
		 M83.4,84.2c-18.2,0-33-14.8-32.9-33c0-18.2,14.8-32.9,33-32.9c18.2,0,33,14.8,33,33C116.4,69.4,101.6,84.2,83.4,84.2
		C83.4,84.2,83.4,84.2,83.4,84.2z"/>
</g>
</svg>
