<?xml version="1.0" encoding="utf-8"?>
<!-- Generator: Adobe Illustrator 23.1.0, SVG Export Plug-In . SVG Version: 6.00 Build 0)  -->
<svg version="1.1" id="Capa_1" xmlns="http://www.w3.org/2000/svg" xmlns:xlink="http://www.w3.org/1999/xlink" x="0px" y="0px"
	 viewBox="0 0 150 200" style="enable-background:new 0 0 150 200;" xml:space="preserve">
<style type="text/css">
	.st0{fill:#FF3636;}
	.st1{fill:#F40000;}
	.st2{fill:#E7E7E7;}
	.st3{fill:#D3D3D8;}
	.st4{fill:none;stroke:#000000;stroke-miterlimit:10;}
</style>
<path class="st0" d="M75,50c-27.5,0-50,22.5-50,50s22.5,50,50,50s50-22.5,50-50S102.5,50,75,50z"/>
<path class="st1" d="M125,100c0,27.5-22.5,50-50,50V50C102.5,50,125,72.5,125,100z"/>
<polygon class="st2" points="83.3,100 99.8,116.6 91.6,124.8 75,108.3 58.4,124.8 50.2,116.6 66.7,100 50.2,83.4 58.4,75.2 75,91.7 
	91.6,75.2 99.8,83.4 "/>
<polygon class="st3" points="83.3,100 99.8,116.6 91.6,124.8 75,108.3 75,91.7 91.6,75.2 99.8,83.4 "/>
<path class="st4" d="M129.2,195H20.8C12.1,195,5,187.9,5,179.2V20.8C5,12.1,12.1,5,20.8,5h108.3c8.7,0,15.8,7.1,15.8,15.8v158.3
	C145,187.9,137.9,195,129.2,195z"/>
</svg>
